<svg xmlns="http://www.w3.org/2000/svg" xmlns:xlink="http://www.w3.org/1999/xlink" viewBox="0 0 607.29 732.22"><defs><style>.cls-1{fill:none;stroke-linecap:round;stroke-linejoin:round;stroke-width:6px;stroke:url(#linear-gradient);}</style><linearGradient id="linear-gradient" x1="55.81" y1="619.27" x2="598.09" y2="76.98" gradientUnits="userSpaceOnUse"><stop offset="0" stop-color="#d90d84"/><stop offset="0.1" stop-color="#d41689"/><stop offset="0.26" stop-color="#c52e97"/><stop offset="0.47" stop-color="#ae56ae"/><stop offset="0.71" stop-color="#8e8dce"/><stop offset="0.97" stop-color="#65d3f7"/><stop offset="1" stop-color="#61dafb"/></linearGradient></defs><g id="Layer_2" data-name="Layer 2"><g id="Layer_3" data-name="Layer 3"><path class="cls-1" d="M170,729.22V392.7h71.87L273.16,423l13.67,14.63L427.56,578.37A301.39,301.39,0,0,1,170,573.75V528.06c39.07,23.4,86.78,36.84,135.64,36.84,32.86,0,62.3-6.08,91.25-17.19l47.17,47.17H573.71V525.69L386.84,338.82l-14.16-14.15L557,142.5q5.61,8.76,10.62,17.92A300.9,300.9,0,0,1,539.21,491.2l-28.58-28.58a260.71,260.71,0,0,0,17.13-291.19l46-45.4V56.84H444.07L241.88,258.35H170V80.51c68-42,162.39-48.87,236.87-15.39l0,0c6.63,2.87,12.94,6.19,19.28,9.58l17.89-17.83h30.27a300.36,300.36,0,0,0-37.38-22C308.56-33.42,137.51,12.25,56.48,132.14A302.5,302.5,0,0,0,3,304.37,299.26,299.26,0,0,0,56.48,475.58V221.76a261.84,261.84,0,0,0,0,165.2V595.89Z"/></g></g></svg>