<svg id="Layer_3" data-name="Layer 3" xmlns="http://www.w3.org/2000/svg" xmlns:xlink="http://www.w3.org/1999/xlink" viewBox="0 0 607.53 731.9"><defs><style>.cls-1{fill:none;stroke-linecap:round;stroke-linejoin:round;stroke-width:6px;stroke:url(#linear-gradient);}</style><linearGradient id="linear-gradient" x1="171.11" y1="675.99" x2="713.39" y2="133.71" gradientUnits="userSpaceOnUse"><stop offset="0" stop-color="#d90d84"/><stop offset="0.1" stop-color="#d41689"/><stop offset="0.26" stop-color="#c52e97"/><stop offset="0.47" stop-color="#ae56ae"/><stop offset="0.71" stop-color="#8e8dce"/><stop offset="0.97" stop-color="#65d3f7"/><stop offset="1" stop-color="#61dafb"/></linearGradient></defs><path class="cls-1" d="M158,361.09m0-150.69c-53.48,89.68-53.48,211.7,0,301.38m478.49-7.59,29,29C730.24,442.32,737.4,315,683.14,217.47l-30.08,30.1C693.51,328,686.4,429.44,636.5,504.19ZM158,511.78V210.4m127.29,239h71.88l31.27,30.31L689,182.75V113.57H559.36L357.18,315.08H285.3V137.23c68-42,162.4-48.86,236.88-15.39L552,92c-128.4-68.23-299.24-23-380.27,96.9v88.59h0V652.61L285.3,786Zm18.62,190c68.85,28.79,151.14,30.11,221.25,3.16L493.4,610.84c-61.56,19-134.18,12.56-190-16.29Zm198.21-243.9-100,98.82L559.36,651.61H689V582.42Z" transform="translate(-114.9 -57.05)"/></svg>