<svg xmlns="http://www.w3.org/2000/svg" viewBox="0 0 601.85 725.78"><defs><style>.cls-1{fill:#361644;}</style></defs><g id="Layer_2" data-name="Layer 2"><g id="Layer_2-2" data-name="Layer 2"><path class="cls-1" d="M40.3,150.23a301.9,301.9,0,0,0,0,301.39"/><path class="cls-1" d="M518.79,444l29,29q3.32-4.73,6.44-9.6a301.32,301.32,0,0,0,16.84-295.21q-2.72-5.53-5.65-10.92l-30.08,30.1c17.67,35.91,26.2,73.18,26.2,113.52a259.72,259.72,0,0,1-41.21,140.72Z"/><polyline class="cls-1" points="40.3 451.62 40.3 300.93 40.3 150.23"/><path class="cls-1" d="M167.59,389.26h71.87l31.28,30.31,300.55-297V53.4H441.65L239.46,254.91H167.59V77.07a260.74,260.74,0,0,1,236.88-15.4l29.86-29.86c-5.75-3-9.62-5.29-13.84-7.11A301.19,301.19,0,0,0,88.14,88.14,304.77,304.77,0,0,0,54.06,128.7v88.59h0V592.45L167.59,725.78Z"/><path class="cls-1" d="M186.21,579.29a302.7,302.7,0,0,0,210.11,7.12q5.63-1.87,11.14-4l-31.77-31.78a260.7,260.7,0,0,1-74.76,10.88,255.58,255.58,0,0,1-115.21-27.17Z"/><polygon class="cls-1" points="384.42 335.38 284.41 434.2 441.65 591.44 571.29 591.44 571.29 522.25 384.42 335.38"/></g></g></svg>