<?xml version="1.0" encoding="utf-8"?>
<!-- Generator: Adobe Illustrator 26.0.3, SVG Export Plug-In . SVG Version: 6.00 Build 0)  -->
<svg version="1.1" xmlns="http://www.w3.org/2000/svg" xmlns:xlink="http://www.w3.org/1999/xlink" x="0px" y="0px"
	 viewBox="0 0 846 846" style="enable-background:new 0 0 846 846;" xml:space="preserve">
<style type="text/css">
	.st0{display:none;}
	.st1{display:inline;}
	.st2{fill:#111111;}
	.st3{fill:#61DAFB;}
	.st4{fill:#D90D84;}
	
		.st5{display:none;fill:none;stroke:url(#SVGID_1_);stroke-width:6;stroke-linecap:round;stroke-linejoin:round;stroke-miterlimit:10;}
	.st6{fill:none;stroke:#000000;stroke-miterlimit:10;}
	.st7{display:none;fill:none;stroke:#898989;stroke-miterlimit:10;}
	
		.st8{fill:none;stroke:url(#SVGID_00000171707295758467780900000004395514434630249369_);stroke-width:6;stroke-linecap:round;stroke-linejoin:round;stroke-miterlimit:10;}
	.st9{display:inline;fill:none;stroke:#822525;stroke-miterlimit:10;}
	.st10{fill:#361644;}
</style>
<g id="Layer_1" class="st0">
	<g class="st1">
		<rect class="st2" width="846" height="846"/>
	</g>
	<g class="st1">
		<g>
			<path class="st3" d="M975.9,371.9"/>
			<path class="st3" d="M975.9,221.2c-26.3,45.3-40.3,96.9-40.3,150.7c0,53.8,14,105.4,40.3,150.7"/>
			<path class="st3" d="M1454.3,515l29,29c2.2-3.2,4.3-6.4,6.4-9.6c31.1-48.5,47.6-104.7,47.6-162.5c0-46.6-10.4-91.2-30.8-132.7
				c-1.8-3.7-3.7-7.3-5.6-10.9l-30.1,30.1c17.7,35.9,26.2,73.2,26.2,113.5c0,50.1-14.3,98.8-41.2,140.7
				C1455.4,513.4,1454.9,514.2,1454.3,515z"/>
			<polyline class="st3" points="975.9,522.6 975.9,371.9 975.9,221.2 			"/>
			<path class="st3" d="M1103.1,460.2h71.9l31.3,30.3l300.5-297v-69.2h-129.6L1175,325.8h-71.9V148c39-23.3,84.6-36.8,133.3-36.8
				c36,0,70.8,7.2,103.5,21.4l29.9-29.9c-5.8-3-9.6-5.3-13.8-7.1c-37.8-16.4-78-24.7-119.6-24.7c-80.4,0-155.9,31.3-212.8,88.1
				c-12.6,12.6-24,26.2-34.1,40.6l0,88.6c0,0,0,0,0,0v375.2l113.5,133.3V460.2z"/>
			<path class="st3" d="M1121.8,650.2c35.9,14.8,74.7,22.6,114.7,22.6c32.6,0,64.7-5.2,95.4-15.4c3.7-1.3,7.5-2.6,11.1-4l-31.8-31.8
				c-24.2,7.2-49.3,10.9-74.8,10.9c-41.6,0-80.6-9.8-115.2-27.2L1121.8,650.2z"/>
			<polygon class="st3" points="1320,406.3 1220,505.1 1377.2,662.4 1506.8,662.4 1506.8,593.2 			"/>
		</g>
		<g>
			<path class="st4" d="M965,361"/>
			<path class="st4" d="M965,210.3c-26.3,45.3-40.3,96.9-40.3,150.7c0,53.8,14,105.4,40.3,150.7"/>
			<path class="st4" d="M1443.5,504.1l29,29c2.2-3.2,4.3-6.4,6.4-9.6c31.1-48.5,47.6-104.7,47.6-162.5c0-46.6-10.4-91.2-30.8-132.7
				c-1.8-3.7-3.7-7.3-5.6-10.9l-30.1,30.1c17.7,35.9,26.2,73.2,26.2,113.5c0,50.1-14.3,98.8-41.2,140.7
				C1444.6,502.6,1444,503.3,1443.5,504.1z"/>
			<polyline class="st4" points="965,511.7 965,361 965,210.3 			"/>
			<path class="st4" d="M1092.3,449.4h71.9l31.3,30.3l300.5-297v-69.2h-129.6L1164.2,315h-71.9V137.2c39-23.3,84.6-36.8,133.3-36.8
				c36,0,70.8,7.2,103.5,21.4l29.9-29.9c-5.8-3-9.6-5.3-13.8-7.1c-37.8-16.4-78-24.7-119.6-24.7c-80.4,0-155.9,31.3-212.8,88.1
				c-12.6,12.6-24,26.2-34.1,40.6l0,88.6c0,0,0,0,0,0v375.2l113.5,133.3V449.4z"/>
			<path class="st4" d="M1110.9,639.4c35.9,14.8,74.7,22.6,114.7,22.6c32.6,0,64.7-5.2,95.4-15.4c3.7-1.3,7.5-2.6,11.1-4l-31.8-31.8
				c-24.2,7.2-49.3,10.9-74.8,10.9c-41.6,0-80.6-9.8-115.2-27.2L1110.9,639.4z"/>
			<polygon class="st4" points="1309.1,395.5 1209.1,494.3 1366.4,651.5 1496,651.5 1496,582.4 			"/>
		</g>
	</g>
</g>
<g id="Layer_3">
	<linearGradient id="SVGID_1_" gradientUnits="userSpaceOnUse" x1="171.1052" y1="675.9932" x2="713.3878" y2="133.7106">
		<stop  offset="0" style="stop-color:#D90D84"/>
		<stop  offset="9.964339e-02" style="stop-color:#D41689"/>
		<stop  offset="0.2623" style="stop-color:#C52E97"/>
		<stop  offset="0.4677" style="stop-color:#AE56AE"/>
		<stop  offset="0.7077" style="stop-color:#8E8DCE"/>
		<stop  offset="0.9741" style="stop-color:#65D3F7"/>
		<stop  offset="1" style="stop-color:#61DAFB"/>
	</linearGradient>
	<path class="st5" d="M158,361.1 M158,210.4c-53.5,89.7-53.5,211.7,0,301.4 M636.5,504.2l29,29c64.7-90.9,71.9-218.2,17.6-315.7
		l-30.1,30.1C693.5,328,686.4,429.4,636.5,504.2z M158,511.8c0-75.1,0-226.3,0-301.4 M285.3,449.4h71.9l31.3,30.3l300.5-297v-69.2
		H559.4L357.2,315.1h-71.9V137.2c68-42,162.4-48.9,236.9-15.4c0,0,29.9-29.9,29.9-29.9c-128.4-68.2-299.2-23-380.3,96.9
		c0,0,0,88.6,0,88.6c0,0,0,0,0,0v375.2l113.5,133.3V449.4z M303.9,639.5c68.8,28.8,151.1,30.1,221.3,3.2l-31.8-31.8
		c-61.6,19-134.2,12.6-190-16.3L303.9,639.5z M502.1,395.5l-100,98.8l157.2,157.2H689v-69.2L502.1,395.5z"/>
	<path class="st6" d="M162.1,361.3"/>
	<path class="st7" d="M1556.5,395.7h71.9l31.3,30.3l300.5-297V59.9h-129.6l-202.2,201.5h-71.9V83.5c68-42,162.4-48.9,236.9-15.4
		c0,0,30.1-30.3,30.1-30.3C1695.1-30.4,1524,15.3,1443,135.2c0,0,0,88.6,0,88.6c0,0,0,0,0,0v375.2l113.5,133.3V395.7z"/>
	<polygon class="st7" points="1773.4,341.8 1673.3,440.7 1830.6,597.9 1960.2,597.9 1960.2,528.7 	"/>
	
		<linearGradient id="SVGID_00000040555622380657235820000003359016654346279073_" gradientUnits="userSpaceOnUse" x1="175.1635" y1="676.1545" x2="717.446" y2="133.8719">
		<stop  offset="0" style="stop-color:#D90D84"/>
		<stop  offset="9.964339e-02" style="stop-color:#D41689"/>
		<stop  offset="0.2623" style="stop-color:#C52E97"/>
		<stop  offset="0.4677" style="stop-color:#AE56AE"/>
		<stop  offset="0.7077" style="stop-color:#8E8DCE"/>
		<stop  offset="0.9741" style="stop-color:#65D3F7"/>
		<stop  offset="1" style="stop-color:#61DAFB"/>
	</linearGradient>
	
		<path style="fill:none;stroke:url(#SVGID_00000040555622380657235820000003359016654346279073_);stroke-width:6;stroke-linecap:round;stroke-linejoin:round;stroke-miterlimit:10;" d="
		M289.4,786.1V449.6h71.9l31.3,30.3l13.7,14.6l140.7,140.7c-37.8,17.1-79.7,26.6-123.9,26.6c-48,0-93.4-11.3-133.6-31.3l0-45.7
		c39.1,23.4,86.8,36.8,135.6,36.8c32.9,0,62.3-6.1,91.3-17.2l47.2,47.2h129.6v-69.2L506.2,395.7L492,381.6l184.4-182.2
		c3.7,5.8,7.3,11.8,10.6,17.9c23.4,42.7,36.6,91.8,36.6,143.9c0,70.6-24.3,135.5-65.1,186.8L630,519.5
		c33.6-43.9,53.6-98.7,53.6-158.2c0-48.6-13.3-94-36.4-132.9l45.9-45.4v-69.2H563.4L361.2,315.2h-71.9V137.4
		c68-42,162.4-48.9,236.9-15.4l0,0c6.6,2.9,12.9,6.2,19.3,9.6l17.9-17.8l30.3,0c-11.9-8.2-24.4-15.6-37.4-22
		C427.9,23.5,256.9,69.1,175.8,189c-33.7,48.6-53.5,108.6-53.5,172.2c0,63.6,19.8,122.6,53.5,171.2l0-253.8
		c-8.7,26-13.4,53.7-13.4,82.6c0,28.9,4.7,56.6,13.4,82.6l0,208.9L289.4,786.1z"/>
	<path class="st6" d="M506.2,395.7"/>
	<path class="st6" d="M593.7,113.7"/>
</g>
<g id="Layer_4" class="st0">
	<polygon class="st9" points="1556.5,732.2 1556.5,395.7 1628.4,395.7 1801,549.5 1543.4,527.8 1543.4,608 1830.6,597.9 
		1960.2,597.9 1960.2,528.7 1764.4,322.6 1903.3,185.3 1888.2,475.7 1936.2,519.6 1960.2,129 1960.2,59.9 1830.6,59.9 1628.4,261.4 
		1556.5,261.4 1556.5,83.5 1877.7,77.7 1884.1,32 1633.6,-26.5 1397.7,135.2 1377.2,447 1443,497.4 1452.1,390 1463.2,224.8 
		1481.4,259.7 1462,390 1443,523.1 1443,598.9 	"/>
</g>
<g id="Layer_2" class="st0">
	<g class="st1">
		<path class="st10" d="M162.4,361"/>
		<path class="st10" d="M162.4,210.3c-26.3,45.3-40.3,96.9-40.3,150.7c0,53.8,14,105.4,40.3,150.7"/>
		<path class="st10" d="M640.9,504.1l29,29c2.2-3.2,4.3-6.4,6.4-9.6c31.1-48.5,47.6-104.7,47.6-162.5c0-46.6-10.4-91.2-30.8-132.7
			c-1.8-3.7-3.7-7.3-5.6-10.9l-30.1,30.1c17.7,35.9,26.2,73.2,26.2,113.5c0,50.1-14.3,98.8-41.2,140.7
			C641.9,502.6,641.4,503.3,640.9,504.1z"/>
		<polyline class="st10" points="162.4,511.7 162.4,361 162.4,210.3 		"/>
		<path class="st10" d="M289.7,449.4h71.9l31.3,30.3l300.5-297v-69.2H563.7L361.5,315h-71.9V137.2c39-23.3,84.6-36.8,133.3-36.8
			c36,0,70.8,7.2,103.5,21.4l29.9-29.9c-5.8-3-9.6-5.3-13.8-7.1c-37.8-16.4-78-24.7-119.6-24.7c-80.4,0-155.9,31.3-212.8,88.1
			c-12.6,12.6-24,26.2-34.1,40.6l0,88.6c0,0,0,0,0,0v375.2l113.5,133.3V449.4z"/>
		<path class="st10" d="M308.3,639.4C344.2,654.2,383,662,423,662c32.6,0,64.7-5.2,95.4-15.4c3.7-1.3,7.5-2.6,11.1-4l-31.8-31.8
			c-24.2,7.2-49.3,10.9-74.8,10.9c-41.6,0-80.6-9.8-115.2-27.2L308.3,639.4z"/>
		<polygon class="st10" points="506.5,395.5 406.5,494.3 563.7,651.5 693.4,651.5 693.4,582.4 		"/>
	</g>
</g>
</svg>
